<?xml version="1.0" standalone="no"?>
<!DOCTYPE svg PUBLIC "-//W3C//DTD SVG 20010904//EN"
 "http://www.w3.org/TR/2001/REC-SVG-20010904/DTD/svg10.dtd">
<svg version="1.0" xmlns="http://www.w3.org/2000/svg"
 width="400.000000pt" height="400.000000pt" viewBox="0 0 400.000000 400.000000"
 preserveAspectRatio="xMidYMid meet">
<metadata>
Created by potrace 1.14, written by Peter Selinger 2001-2017
</metadata>
<g transform="translate(0.000000,400.000000) scale(0.100000,-0.100000)"
fill="#000000" stroke="none">
<path d="M155 3993 c-49 -13 -108 -68 -136 -128 -18 -38 -19 -111 -19 -1859 0
-1351 3 -1829 12 -1857 13 -45 76 -114 122 -134 26 -11 338 -13 1861 -14 1766
-1 1831 0 1871 18 60 27 83 50 110 106 l24 50 0 1819 c0 1360 -3 1829 -12
1858 -15 50 -86 121 -136 136 -30 9 -496 12 -1858 11 -1001 -1 -1828 -4 -1839
-6z"/>
</g>
</svg>
